# xmcd CD database file
# Copyright (C) 1995 Ti Kan
#
# Track frame offsets:
#	150
#	16892
#	35235
#	55382
#	73475
#	86480
#	100300
#	114322
#	126557
#	142240
#	158560
#	179920
#	195995
#	208045
#
# Disc length: 2946 seconds
#
# Revision: 4
# Processed by: cddbd v1.4b42PL1 Copyright (c) Steve Scherf et al.
# Submitted via: NotifyCDPlayer(CDDB) 1.60beta5_freedb
#
DISCID=d80b800e
DTITLE=Nanci Griffith - Clock Without Hands
DYEAR=1900
DGENRE=
TTITLE0=Clock Without Hands
TTITLE1=Travelling Through This Part of You
TTITLE2=Where Would I Be
TTITLE3=Midnight in Missoula
TTITLE4=Lost Him in the Sun
TTITLE5=The Ghost Inside of Me
TTITLE6=Truly Something Fine
TTITLE7=Cotton
TTITLE8=Pearl's Eye View
TTITLE9=Roses on the 4th of July
TTITLE10=Shaking Out the Snow
TTITLE11=Armstrong
TTITLE12=Last Song for Mother
TTITLE13=In the Wee Small Hours
EXTD=July 31, 2001\n\nWea/Elektra Entertainment - ASIN: B00005M98Q 
EXTT0=
EXTT1=
EXTT2=
EXTT3=
EXTT4=
EXTT5=
EXTT6=
EXTT7=
EXTT8=
EXTT9=
EXTT10=
EXTT11=
EXTT12=
EXTT13=
PLAYORDER=
